<?xml version="1.0" encoding="utf-8"?>
<!-- Generator: Adobe Illustrator 24.0.3, SVG Export Plug-In . SVG Version: 6.00 Build 0)  -->
<svg version="1.1" id="Layer_1" xmlns="http://www.w3.org/2000/svg" xmlns:xlink="http://www.w3.org/1999/xlink" x="0px" y="0px"
	 viewBox="0 0 665 512" style="enable-background:new 0 0 665 512;" xml:space="preserve">
<style type="text/css">
	.st0{fill:#FFFFFF;}
	.st1{fill:none;stroke:#000000;stroke-width:0.9996;stroke-miterlimit:3.9984;}
	.st2{font-family:'Times-Roman';}
	.st3{font-size:13.9945px;}
	.st4{stroke:#000000;stroke-width:0.9996;stroke-miterlimit:3.9984;}
	.st5{fill:none;stroke:#808080;stroke-width:0.9996;stroke-miterlimit:3.9984;}
	.st6{fill:#808080;stroke:#808080;stroke-width:0.9996;stroke-miterlimit:3.9984;}
</style>
<title>%3</title>
<polygon class="st0" points="0,511.7 0,0.3 665,0.3 665,511.7 "/>
<g id="clust1">
	<title>cluster_Data</title>
</g>
<g id="clust2">
	<title>cluster_Vocabulary</title>
</g>
<a id="node1" xlink:href="/chaise/recordset/#1/Data:Specimen" target="_parent">
	<g>
		<title>Data_Specimen</title>
		<g id="a_node1">

				<polygon class="st1" points="320.8,351.5 219.8,351.5 219.8,387.5 320.8,387.5 				"/>
				<text transform="matrix(1 0 0 1 227.5688 373.7041)" class="st2 st3">Data:Specimen</text>

		</g>
	</g>
</a>
<a id="node7" xlink:href="/chaise/recordset/#1/Vocabulary:Species" target="_parent">
	<g>
		<title>Vocabulary_Species</title>
		<g id="a_node7">

				<ellipse class="st1" cx="92.7" cy="288.2" rx="79.8" ry="18"/>
				<text transform="matrix(1 0 0 1 37.6084 292.376)" class="st2 st3">Vocabulary:Species</text>

		</g>
	</g>
</a>
<g id="edge1">
	<title>Data_Specimen-&gt;Vocabulary_Species</title>
	<path class="st1" d="M230.9,351.5c-27.6-12.7-64.6-29.6-93.4-42.8"/>
	<polygon class="st4" points="135.7,311.7 128.1,304.4 138.6,305.4 	"/>
</g>
<a id="node8" xlink:href="/chaise/recordset/#1/Vocabulary:Sex" target="_parent">
	<g>
		<title>Vocabulary_Sex</title>
		<g id="a_node8">

				<ellipse class="st1" cx="588.8" cy="412.2" rx="65.9" ry="18"/>
				<text transform="matrix(1 0 0 1 544.6523 416.3877)" class="st2 st3">Vocabulary:Sex</text>

		</g>
	</g>
</a>
<g id="edge2">
	<title>Data_Specimen-&gt;Vocabulary_Sex</title>
	<path class="st1" d="M321.1,376.3c53.6,7.2,138.5,18.6,198.3,26.6"/>
	<polygon class="st4" points="520.1,399.4 529.5,404.2 519.1,406.4 	"/>
</g>
<a id="node9" xlink:href="/chaise/recordset/#1/Vocabulary:Stage" target="_parent">
	<g>
		<title>Vocabulary_Stage</title>
		<g id="a_node9">

				<ellipse class="st1" cx="96.6" cy="464" rx="72.1" ry="18"/>
				<text transform="matrix(1 0 0 1 47.4053 468.167)" class="st2 st3">Vocabulary:Stage</text>

		</g>
	</g>
</a>
<g id="edge3">
	<title>Data_Specimen-&gt;Vocabulary_Stage</title>
	<path class="st1" d="M236.8,387.7c-28.9,15.7-70.5,38.4-101,54.9"/>
	<polygon class="st4" points="137.3,445.8 126.8,447.5 133.9,439.7 	"/>
</g>
<a id="node10" xlink:href="/chaise/recordset/#1/Vocabulary:Assay_Type" target="_parent">
	<g>
		<title>Vocabulary_Assay_Type</title>
		<g id="a_node10">

				<ellipse class="st1" cx="260.9" cy="489.7" rx="96" ry="18"/>
				<text transform="matrix(1 0 0 1 192.7461 493.9072)" class="st2 st3">Vocabulary:Assay_Type</text>

		</g>
	</g>
</a>
<g id="edge4">
	<title>Data_Specimen-&gt;Vocabulary_Assay_Type</title>
	<path class="st1" d="M268.9,387.5c-1.5,19.6-4,51.1-5.8,74"/>
	<polygon class="st4" points="266.6,461.9 262.3,471.6 259.6,461.3 	"/>
</g>
<a id="node11" xlink:href="/chaise/recordset/#1/Vocabulary:Anatomy" target="_parent">
	<g>
		<title>Vocabulary_Anatomy</title>
		<g id="a_node11">

				<ellipse class="st1" cx="432.4" cy="467.5" rx="85.6" ry="18"/>
				<text transform="matrix(1 0 0 1 372.6484 471.7061)" class="st2 st3">Vocabulary:Anatomy</text>

		</g>
	</g>
</a>
<g id="edge5">
	<title>Data_Specimen-&gt;Vocabulary_Anatomy</title>
	<path class="st1" d="M300.4,387.7c26.9,16.3,66.3,40.1,95.1,57.5"/>
	<polygon class="st4" points="397.3,442.2 404.1,450.4 393.7,448.2 	"/>
</g>
<a id="node2" xlink:href="/chaise/recordset/#1/Data:Study" target="_parent">
	<g>
		<title>Data_Study</title>
		<g id="a_node2">

				<polygon class="st1" points="368.5,118.3 289.5,118.3 289.5,154.3 368.5,154.3 				"/>
				<text transform="matrix(1 0 0 1 297.4873 140.4653)" class="st2 st3">Data:Study</text>

		</g>
	</g>
</a>
<a id="node3" xlink:href="/chaise/recordset/#1/Data:Collection" target="_parent">
	<g>
		<title>Data_Collection</title>
		<g id="a_node3">

				<polygon class="st1" points="409.8,4.3 305.6,4.3 305.6,40.3 409.8,40.3 				"/>
				<text transform="matrix(1 0 0 1 313.3672 26.4897)" class="st2 st3">Data:Collection</text>

		</g>
	</g>
</a>
<g id="edge12">
	<title>Data_Study-&gt;Data_Collection</title>
	<path class="st5" d="M336,108.2c4.4-17.6,10.1-40.2,14.6-57.9"/>
	<polygon class="st6" points="339.4,109.4 333.5,118.2 332.6,107.7 	"/>
	<polygon class="st6" points="347.2,49.5 353.1,40.6 354,51.2 	"/>
</g>
<a id="node4" xlink:href="/chaise/recordset/#1/Data:Experiment" target="_parent">
	<g>
		<title>Data_Experiment</title>
		<g id="a_node4">

				<polygon class="st1" points="276.1,198.8 164.9,198.8 164.9,234.8 276.1,234.8 				"/>
				<text transform="matrix(1 0 0 1 172.7383 220.9639)" class="st2 st3">Data:Experiment</text>

		</g>
	</g>
</a>
<g id="edge6">
	<title>Data_Experiment-&gt;Data_Study</title>
	<path class="st1" d="M244.9,198.7c15.2-11.3,35-26,51.5-38.3"/>
	<polygon class="st4" points="294.6,157.4 304.7,154.3 298.8,163 	"/>
</g>
<a id="node12" xlink:href="/chaise/recordset/#1/Vocabulary:Molecule_Type" target="_parent">
	<g>
		<title>Vocabulary_Molecule_Type</title>
		<g id="a_node12">

				<ellipse class="st1" cx="112" cy="68" rx="108" ry="18"/>
				<text transform="matrix(1 0 0 1 34.5137 72.2417)" class="st2 st3">Vocabulary:Molecule_Type</text>

		</g>
	</g>
</a>
<g id="edge7">
	<title>Data_Experiment-&gt;Vocabulary_Molecule_Type</title>
	<path class="st1" d="M207.2,198.5c-19.1-26.1-54.2-74.3-76.1-104.3"/>
	<polygon class="st4" points="128.1,96.1 125.1,86 133.8,92 	"/>
</g>
<a id="node5" xlink:href="/chaise/recordset/#1/Data:File" target="_parent">
	<g>
		<title>Data_File</title>
		<g id="a_node5">

				<polygon class="st1" points="524.2,229.9 456.1,229.9 456.1,265.8 524.2,265.8 				"/>
				<text transform="matrix(1 0 0 1 464.1201 252.0415)" class="st2 st3">Data:File</text>

		</g>
	</g>
</a>
<a id="node6" xlink:href="/chaise/recordset/#1/Data:Replicate" target="_parent">
	<g>
		<title>Data_Replicate</title>
		<g id="a_node6">

				<polygon class="st1" points="409.5,274.9 310.2,274.9 310.2,310.9 409.5,310.9 				"/>
				<text transform="matrix(1 0 0 1 318.3154 297.1338)" class="st2 st3">Data:Replicate</text>

		</g>
	</g>
</a>
<g id="edge8">
	<title>Data_File-&gt;Data_Replicate</title>
	<path class="st1" d="M455.9,259.7c-11.3,3.9-24.2,8.4-36.8,12.7"/>
	<polygon class="st4" points="420.2,275.8 409.6,275.7 417.9,269.2 	"/>
</g>
<a id="node13" xlink:href="/chaise/recordset/#1/Vocabulary:File_Type" target="_parent">
	<g>
		<title>Vocabulary_File_Type</title>
		<g id="a_node13">

				<ellipse class="st1" cx="572.6" cy="89.6" rx="88.3" ry="18"/>
				<text transform="matrix(1 0 0 1 510.6719 93.8232)" class="st2 st3">Vocabulary:File_Type</text>
			
		</g>
	</g>
</a>
<g id="edge9">
	<title>Data_File-&gt;Vocabulary_File_Type</title>
	<path class="st1" d="M499.6,229.7c14.5-27.8,42.2-81,59-113.2"/>
	<polygon class="st4" points="555.6,114.8 563.3,107.6 561.8,118 	"/>
</g>
<g id="edge11">
	<title>Data_Replicate-&gt;Data_Specimen</title>
	<path class="st1" d="M338.7,311.1c-11.8,10.1-26.7,22.8-39.6,33.8"/>
	<polygon class="st4" points="301.3,347.7 291.4,351.5 296.7,342.3 	"/>
</g>
<g id="edge10">
	<title>Data_Replicate-&gt;Data_Experiment</title>
	<path class="st1" d="M326.9,274.9c-19.2-10.5-43.6-23.8-64.2-35.1"/>
	<polygon class="st4" points="260.9,242.8 253.8,234.9 264.2,236.7 	"/>
</g>
</svg>
